<svg width="64" height="64" viewBox="0 0 64 64" fill="none" xmlns="http://www.w3.org/2000/svg">
<path d="M57 53.9237C56.9122 53.9239 56.8248 53.9124 56.74 53.8897L6.74 40.4457C6.52757 40.3885 6.33994 40.2629 6.20616 40.0882C6.07237 39.9136 5.99991 39.6997 6 39.4797V22.3687C5.99991 22.1487 6.07237 21.9349 6.20616 21.7602C6.33994 21.5856 6.52757 21.4599 6.74 21.4027L56.74 7.95773C56.8882 7.91782 57.0437 7.91257 57.1943 7.94239C57.3449 7.97222 57.4866 8.03632 57.6084 8.12973C57.7303 8.22314 57.829 8.34335 57.8969 8.48104C57.9648 8.61873 58.0001 8.77021 58 8.92373V52.9237C58 53.1889 57.8946 53.4433 57.7071 53.6308C57.5196 53.8184 57.2652 53.9237 57 53.9237ZM8 38.7127L56 51.6197V10.2287L8 23.1347V38.7127Z" fill="white"/>
<path d="M5 42.9238H3C2.20435 42.9238 1.44129 42.6078 0.87868 42.0451C0.31607 41.4825 0 40.7195 0 39.9238L0 21.9238C0 21.1282 0.31607 20.3651 0.87868 19.8025C1.44129 19.2399 2.20435 18.9238 3 18.9238H5C5.79565 18.9238 6.55871 19.2399 7.12132 19.8025C7.68393 20.3651 8 21.1282 8 21.9238V39.9238C8 40.7195 7.68393 41.4825 7.12132 42.0451C6.55871 42.6078 5.79565 42.9238 5 42.9238ZM3 20.9238C2.73478 20.9238 2.48043 21.0292 2.29289 21.2167C2.10536 21.4043 2 21.6586 2 21.9238V39.9238C2 40.189 2.10536 40.4434 2.29289 40.6309C2.48043 40.8185 2.73478 40.9238 3 40.9238H5C5.26522 40.9238 5.51957 40.8185 5.70711 40.6309C5.89464 40.4434 6 40.189 6 39.9238V21.9238C6 21.6586 5.89464 21.4043 5.70711 21.2167C5.51957 21.0292 5.26522 20.9238 5 20.9238H3Z" fill="white"/>
<path d="M61 58.9238H59C58.2044 58.9238 57.4413 58.6078 56.8787 58.0451C56.3161 57.4825 56 56.7195 56 55.9238V5.92383C56 5.12818 56.3161 4.36512 56.8787 3.80251C57.4413 3.2399 58.2044 2.92383 59 2.92383H61C61.7956 2.92383 62.5587 3.2399 63.1213 3.80251C63.6839 4.36512 64 5.12818 64 5.92383V55.9238C64 56.7195 63.6839 57.4825 63.1213 58.0451C62.5587 58.6078 61.7956 58.9238 61 58.9238ZM59 4.92383C58.7348 4.92383 58.4804 5.02918 58.2929 5.21672C58.1054 5.40426 58 5.65861 58 5.92383V55.9238C58 56.189 58.1054 56.4434 58.2929 56.6309C58.4804 56.8185 58.7348 56.9238 59 56.9238H61C61.2652 56.9238 61.5196 56.8185 61.7071 56.6309C61.8946 56.4434 62 56.189 62 55.9238V5.92383C62 5.65861 61.8946 5.40426 61.7071 5.21672C61.5196 5.02918 61.2652 4.92383 61 4.92383H59Z" fill="white"/>
<path d="M41.29 61.0759C41.0298 61.0758 40.7706 61.0422 40.519 60.9759L24.386 56.7179C21.2302 55.8813 18.5352 53.8269 16.8922 51.0057C15.2492 48.1844 14.7924 44.8266 15.622 41.6689L17.556 42.1799C16.8621 44.824 17.2451 47.6354 18.6211 49.9974C19.9971 52.3595 22.2537 54.0794 24.896 54.7799L41.029 59.0379C41.1561 59.0716 41.2886 59.0798 41.4189 59.0622C41.5492 59.0445 41.6748 59.0013 41.7884 58.9351C41.902 58.8689 42.0014 58.7809 42.0809 58.6762C42.1605 58.5715 42.2186 58.4521 42.252 58.3249L44.533 49.6649L46.467 50.1749L44.186 58.8349C44.0175 59.4757 43.6416 60.0427 43.117 60.4473C42.5924 60.852 41.9485 61.0716 41.286 61.0719L41.29 61.0759Z" fill="white"/>
<path d="M39.149 55.4089C39.0632 55.409 38.9778 55.3976 38.895 55.3749L25.937 51.9559C23.9898 51.4391 22.3269 50.1716 21.3124 48.4311C20.298 46.6905 20.0149 44.6189 20.525 42.6699L22.459 43.1789C22.083 44.615 22.2915 46.1415 23.0388 47.4241C23.7861 48.7067 25.0113 49.6409 26.446 50.0219L38.437 53.1869L39.627 48.6689L41.561 49.1789L40.116 54.6639C40.0597 54.8774 39.9343 55.0663 39.7594 55.2011C39.5844 55.3359 39.3698 55.4089 39.149 55.4089Z" fill="white"/>
</svg>
