<svg width="64" height="64" viewBox="0 0 64 64" fill="none" xmlns="http://www.w3.org/2000/svg">
<g clip-path="url(#clip0_153_45)">
<path d="M0 4C0 1.791 1.791 0 4 0C6.209 0 8 1.791 8 4C8 6.209 6.209 8 4 8C1.791 8 0 6.209 0 4ZM59.5 25H58.5C56.567 25 55 26.567 55 28.5C55 30.433 56.567 32 58.5 32H60C62.209 32 64 33.791 64 36C64 38.209 62.209 40 60 40H52.5C51.119 40 50 41.119 50 42.5C50 43.881 51.119 45 52.5 45H54C56.209 45 58 46.791 58 49C58 51.209 56.209 53 54 53H49C47.895 53 47 53.895 47 55C47 56.105 47.895 57 49 57H49.5C51.433 57 53 58.567 53 60.5C53 62.433 51.433 64 49.5 64H12.5C10.567 64 9 62.433 9 60.5C9 58.567 10.567 57 12.5 57C13.881 57 15 55.881 15 54.5C15 53.119 13.881 52 12.5 52H9C6.791 52 5 50.209 5 48C5 45.791 6.791 44 9 44H9.5C11.433 44 13 42.433 13 40.5C13 38.567 11.433 37 9.5 37H5C2.239 37 0 34.761 0 32C0 29.239 2.239 27 5 27H7C8.657 27 10 25.657 10 24C10 22.343 8.657 21 7 21H5.5C3.567 21 2 19.433 2 17.5C2 15.567 3.567 14 5.5 14H17C18.657 14 20 12.657 20 11C20 9.343 18.657 8 17 8H15C12.791 8 11 6.209 11 4C11 1.791 12.791 0 15 0H51C53.209 0 55 1.791 55 4C55 6.209 53.209 8 51 8H49C46.791 8 45 9.791 45 12C45 14.209 46.791 16 49 16H59.5C61.985 16 64 18.015 64 20.5C64 22.985 61.985 25 59.5 25ZM59.5 64C61.433 64 63 62.433 63 60.5C63 58.567 61.433 57 59.5 57C57.567 57 56 58.567 56 60.5C56 62.433 57.567 64 59.5 64Z" fill="url(#paint0_radial_153_45)"/>
<path d="M32 8C18.8 8 8 18.8 8 32C8 41.9 14.08 50.45 22.68 54.11C22.82 54.16 22.96 54.22 23.1 54.28C23.89 54.58 24.68 53.79 24.39 53C23.86 51.54 23.16 49.6 22.7 48.35C22.44 47.64 22.01 46.99 21.43 46.54C16.93 43.26 14 37.96 14 32C14 22.1 22.1 14 32 14C41.9 14 50 22.1 50 32C50 37.97 47.06 43.28 42.55 46.56C41.98 46.99 41.56 47.6 41.31 48.28C40.86 49.53 40.13 51.51 39.59 53C39.3 53.81 40.1 54.6 40.89 54.28C40.9 54.28 40.9 54.27 40.9 54.27C41.16 54.17 41.41 54.06 41.67 53.95C41.91 53.85 42.15 53.74 42.38 53.62C50.42 49.74 56 41.49 56 32C56 18.8 45.2 8 32 8Z" fill="url(#paint1_linear_153_45)"/>
<path d="M31.9879 61C32.8849 61 33.6869 60.438 33.9949 59.594L40.8819 40.706C41.1449 39.969 40.9599 39.146 40.4079 38.593C39.7629 37.947 38.7669 37.814 37.9749 38.267L31.9849 42L26.0249 38.267C25.2329 37.814 24.2369 37.948 23.5919 38.593C23.0399 39.146 22.8549 39.969 23.1179 40.706L29.9759 59.591C30.2829 60.437 31.0849 61 31.9839 61H31.9879Z" fill="url(#paint2_linear_153_45)"/>
<path d="M35 6V15C35 16.657 33.657 18 32 18C30.343 18 29 16.657 29 15V6C29 4.343 30.343 3 32 3C33.657 3 35 4.343 35 6ZM18 32C18 33.657 16.657 35 15 35H6C4.343 35 3 33.657 3 32C3 30.343 4.343 29 6 29H15C16.657 29 18 30.343 18 32ZM61 32C61 33.657 59.657 35 58 35H49C47.343 35 46 33.657 46 32C46 30.343 47.343 29 49 29H58C59.657 29 61 30.343 61 32Z" fill="url(#paint3_linear_153_45)"/>
</g>
<defs>
<radialGradient id="paint0_radial_153_45" cx="0" cy="0" r="1" gradientUnits="userSpaceOnUse" gradientTransform="translate(32 32) scale(32)">
<stop stop-color="#F4E9C3"/>
<stop offset="0.219" stop-color="#F8EECD"/>
<stop offset="0.644" stop-color="#FDF4DC"/>
<stop offset="1" stop-color="#FFF6E1"/>
</radialGradient>
<linearGradient id="paint1_linear_153_45" x1="32" y1="63.505" x2="32" y2="17.152" gradientUnits="userSpaceOnUse">
<stop stop-color="#3280E5"/>
<stop offset="0.076" stop-color="#3487E6"/>
<stop offset="0.449" stop-color="#3CA4ED"/>
<stop offset="0.77" stop-color="#41B7F1"/>
<stop offset="1" stop-color="#43BDF2"/>
</linearGradient>
<linearGradient id="paint2_linear_153_45" x1="31.9999" y1="61" x2="31.9999" y2="27.233" gradientUnits="userSpaceOnUse">
<stop stop-color="#FF634D"/>
<stop offset="0.204" stop-color="#FE6464"/>
<stop offset="0.521" stop-color="#FC6581"/>
<stop offset="0.794" stop-color="#FA6694"/>
<stop offset="0.989" stop-color="#FA669A"/>
</linearGradient>
<linearGradient id="paint3_linear_153_45" x1="32" y1="36.232" x2="32" y2="-29.625" gradientUnits="userSpaceOnUse">
<stop stop-color="#155CDE"/>
<stop offset="0.278" stop-color="#1F7FE5"/>
<stop offset="0.569" stop-color="#279CEB"/>
<stop offset="0.82" stop-color="#2CAFEF"/>
<stop offset="1" stop-color="#2EB5F0"/>
</linearGradient>
<clipPath id="clip0_153_45">
<rect width="64" height="64" fill="white"/>
</clipPath>
</defs>
</svg>
