<svg width="64" height="64" viewBox="0 0 64 64" fill="none" xmlns="http://www.w3.org/2000/svg">
<g clip-path="url(#clip0_96_134)">
<path d="M33 64H7C5.14422 63.9976 3.36512 63.2594 2.05288 61.9471C0.740644 60.6349 0.00238142 58.8558 0 57L0 7C0.00238142 5.14422 0.740644 3.36512 2.05288 2.05288C3.36512 0.740644 5.14422 0.00238142 7 0L33 0C34.8558 0.00238142 36.6349 0.740644 37.9471 2.05288C39.2594 3.36512 39.9976 5.14422 40 7V57C39.9976 58.8558 39.2594 60.6349 37.9471 61.9471C36.6349 63.2594 34.8558 63.9976 33 64ZM7 2C5.67441 2.00159 4.40356 2.52888 3.46622 3.46622C2.52888 4.40356 2.00159 5.67441 2 7V57C2.00159 58.3256 2.52888 59.5964 3.46622 60.5338C4.40356 61.4711 5.67441 61.9984 7 62H33C34.3256 61.9984 35.5964 61.4711 36.5338 60.5338C37.4711 59.5964 37.9984 58.3256 38 57V7C37.9984 5.67441 37.4711 4.40356 36.5338 3.46622C35.5964 2.52888 34.3256 2.00159 33 2H7Z" fill="black"/>
<path d="M35 50H5C4.73478 50 4.48043 49.8946 4.29289 49.7071C4.10536 49.5196 4 49.2652 4 49V13C4 12.7348 4.10536 12.4804 4.29289 12.2929C4.48043 12.1054 4.73478 12 5 12H35C35.2652 12 35.5196 12.1054 35.7071 12.2929C35.8946 12.4804 36 12.7348 36 13V49C36 49.2652 35.8946 49.5196 35.7071 49.7071C35.5196 49.8946 35.2652 50 35 50ZM6 48H34V14H6V48Z" fill="black"/>
<path d="M20 60C19.2089 60 18.4355 59.7654 17.7777 59.3259C17.1199 58.8864 16.6072 58.2616 16.3045 57.5307C16.0017 56.7998 15.9225 55.9956 16.0769 55.2196C16.2312 54.4437 16.6122 53.731 17.1716 53.1716C17.731 52.6122 18.4437 52.2312 19.2196 52.0769C19.9956 51.9225 20.7998 52.0017 21.5307 52.3045C22.2616 52.6072 22.8864 53.1199 23.3259 53.7777C23.7654 54.4355 24 55.2089 24 56C24 57.0609 23.5786 58.0783 22.8284 58.8284C22.0783 59.5786 21.0609 60 20 60ZM20 54C19.6044 54 19.2178 54.1173 18.8889 54.3371C18.56 54.5568 18.3036 54.8692 18.1522 55.2346C18.0009 55.6001 17.9613 56.0022 18.0384 56.3902C18.1156 56.7781 18.3061 57.1345 18.5858 57.4142C18.8655 57.6939 19.2219 57.8844 19.6098 57.9616C19.9978 58.0387 20.3999 57.9991 20.7654 57.8478C21.1308 57.6964 21.4432 57.44 21.6629 57.1111C21.8827 56.7822 22 56.3956 22 56C22 55.4696 21.7893 54.9609 21.4142 54.5858C21.0391 54.2107 20.5304 54 20 54Z" fill="black"/>
<path d="M26 10H14C13.2044 10 12.4413 9.68393 11.8787 9.12132C11.3161 8.55871 11 7.79565 11 7C11 6.20435 11.3161 5.44129 11.8787 4.87868C12.4413 4.31607 13.2044 4 14 4H26C26.7956 4 27.5587 4.31607 28.1213 4.87868C28.6839 5.44129 29 6.20435 29 7C29 7.79565 28.6839 8.55871 28.1213 9.12132C27.5587 9.68393 26.7956 10 26 10ZM14 6C13.7348 6 13.4804 6.10536 13.2929 6.29289C13.1054 6.48043 13 6.73478 13 7C13 7.26522 13.1054 7.51957 13.2929 7.70711C13.4804 7.89464 13.7348 8 14 8H26C26.2652 8 26.5196 7.89464 26.7071 7.70711C26.8946 7.51957 27 7.26522 27 7C27 6.73478 26.8946 6.48043 26.7071 6.29289C26.5196 6.10536 26.2652 6 26 6H14Z" fill="black"/>
<path d="M43 31C42.834 30.9999 42.6706 30.9585 42.5246 30.8795C42.3786 30.8005 42.2546 30.6864 42.1637 30.5475C42.0728 30.4086 42.018 30.2492 42.004 30.0838C41.9901 29.9184 42.0176 29.7521 42.084 29.6L44.149 24.877C43.5284 24.6934 42.9838 24.3141 42.5965 23.7955C42.2092 23.277 42 22.6472 42 22V3C42 2.20435 42.3161 1.44129 42.8787 0.87868C43.4413 0.31607 44.2044 0 45 0L61 0C61.7956 0 62.5587 0.31607 63.1213 0.87868C63.6839 1.44129 64 2.20435 64 3V22C64 22.7956 63.6839 23.5587 63.1213 24.1213C62.5587 24.6839 61.7956 25 61 25H52.3L43.552 30.832C43.3883 30.9407 43.1965 30.9991 43 31ZM45 2C44.7348 2 44.4804 2.10536 44.2929 2.29289C44.1054 2.48043 44 2.73478 44 3V22C44 22.2652 44.1054 22.5196 44.2929 22.7071C44.4804 22.8946 44.7348 23 45 23H45.625C45.791 23.0001 45.9544 23.0415 46.1004 23.1205C46.2464 23.1995 46.3704 23.3136 46.4613 23.4525C46.5522 23.5914 46.607 23.7508 46.621 23.9162C46.6349 24.0816 46.6074 24.2479 46.541 24.4L45.283 27.276L51.445 23.168C51.6095 23.0587 51.8025 23.0003 52 23H61C61.2652 23 61.5196 22.8946 61.7071 22.7071C61.8946 22.5196 62 22.2652 62 22V3C62 2.73478 61.8946 2.48043 61.7071 2.29289C61.5196 2.10536 61.2652 2 61 2H45Z" fill="black"/>
<path d="M55 14H51C50.7563 13.9999 50.521 13.9109 50.3383 13.7496C50.1557 13.5883 50.0382 13.3658 50.008 13.124L49.008 5.124C48.9904 4.98333 49.0029 4.84052 49.0447 4.70506C49.0865 4.5696 49.1567 4.44458 49.2505 4.33829C49.3443 4.232 49.4596 4.14687 49.5888 4.08855C49.7181 4.03022 49.8582 4.00004 50 4H56C56.1417 4.00004 56.2819 4.03022 56.4111 4.08855C56.5403 4.14687 56.6556 4.232 56.7494 4.33829C56.8432 4.44458 56.9134 4.5696 56.9552 4.70506C56.997 4.84052 57.0095 4.98333 56.992 5.124L55.992 13.124C55.9617 13.3658 55.8443 13.5883 55.6616 13.7496C55.4789 13.9109 55.2437 13.9999 55 14ZM51.883 12H54.117L54.867 6H51.133L51.883 12Z" fill="black"/>
<path d="M55 21H51C50.7348 21 50.4804 20.8946 50.2929 20.7071C50.1054 20.5196 50 20.2652 50 20V16C50 15.7348 50.1054 15.4804 50.2929 15.2929C50.4804 15.1054 50.7348 15 51 15H55C55.2652 15 55.5196 15.1054 55.7071 15.2929C55.8946 15.4804 56 15.7348 56 16V20C56 20.2652 55.8946 20.5196 55.7071 20.7071C55.5196 20.8946 55.2652 21 55 21ZM52 19H54V17H52V19Z" fill="black"/>
</g>
<defs>
<clipPath id="clip0_96_134">
<rect width="64" height="64" fill="white"/>
</clipPath>
</defs>
</svg>
