<svg width="64" height="64" viewBox="0 0 64 64" fill="none" xmlns="http://www.w3.org/2000/svg">
<g clip-path="url(#clip0_96_368)">
<path d="M32 54C27.2533 54 22.6131 52.5924 18.6663 49.9553C14.7195 47.3181 11.6434 43.5698 9.8269 39.1844C8.0104 34.799 7.53512 29.9734 8.46116 25.3178C9.38721 20.6623 11.673 16.3859 15.0294 13.0294C18.3859 9.67299 22.6623 7.38721 27.3178 6.46116C31.9734 5.53512 36.799 6.0104 41.1844 7.8269C45.5698 9.64341 49.3181 12.7195 51.9553 16.6663C54.5924 20.6131 56 25.2533 56 30C55.9926 36.3629 53.4617 42.4631 48.9624 46.9624C44.4631 51.4617 38.3629 53.9926 32 54ZM32 8.00001C27.6488 8.00001 23.3953 9.29029 19.7775 11.7077C16.1596 14.1251 13.3398 17.561 11.6747 21.581C10.0095 25.601 9.57386 30.0244 10.4227 34.292C11.2716 38.5596 13.3669 42.4796 16.4437 45.5564C19.5204 48.6331 23.4404 50.7284 27.708 51.5773C31.9756 52.4262 36.3991 51.9905 40.419 50.3254C44.439 48.6602 47.875 45.8404 50.2923 42.2226C52.7097 38.6047 54 34.3512 54 30C53.9934 24.1673 51.6734 18.5753 47.5491 14.451C43.4247 10.3266 37.8327 8.00663 32 8.00001Z" fill="black"/>
<path d="M32 60C26.0666 60 20.2664 58.2405 15.3329 54.9441C10.3994 51.6477 6.55426 46.9623 4.28363 41.4805C2.013 35.9987 1.4189 29.9667 2.57646 24.1473C3.73401 18.3279 6.59123 12.9824 10.7868 8.78681C14.9824 4.59123 20.3279 1.73401 26.1473 0.576455C31.9667 -0.581102 37.9987 0.0129986 43.4805 2.28363C48.9623 4.55426 53.6477 8.39943 56.9441 13.3329C60.2405 18.2664 62 24.0666 62 30V40C62 40.2652 61.8947 40.5196 61.7071 40.7071C61.5196 40.8947 61.2652 41 61 41H55C54.7348 41 54.4804 40.8947 54.2929 40.7071C54.1054 40.5196 54 40.2652 54 40V30H56V39H60V30C59.9998 23.4928 57.7332 17.1888 53.5896 12.1713C49.446 7.1539 43.6842 3.73633 37.2944 2.50591C30.9045 1.27549 24.2857 2.30907 18.5751 5.42902C12.8646 8.54898 8.4191 13.5605 6.00248 19.6023C3.58586 25.6442 3.34907 32.3391 5.3328 38.5366C7.31652 44.7341 11.3969 50.0471 16.8727 53.5627C22.3485 57.0784 28.8779 58.577 35.3387 57.8011C41.7995 57.0252 47.7883 54.0232 52.276 49.311L53.725 50.689C50.9324 53.6434 47.5638 55.9939 43.8272 57.5953C40.0906 59.1968 36.0653 60.0152 32 60Z" fill="black"/>
<path d="M32 48C28.4399 48 24.9598 46.9443 21.9997 44.9665C19.0397 42.9886 16.7326 40.1774 15.3702 36.8883C14.0078 33.5992 13.6513 29.98 14.3459 26.4884C15.0404 22.9967 16.7547 19.7894 19.2721 17.2721C21.7894 14.7547 24.9967 13.0404 28.4884 12.3459C31.98 11.6513 35.5992 12.0078 38.8883 13.3702C42.1774 14.7326 44.9886 17.0397 46.9665 19.9997C48.9443 22.9598 50 26.4399 50 30C49.9944 34.7722 48.0962 39.3473 44.7218 42.7218C41.3473 46.0962 36.7722 47.9944 32 48ZM32 14C28.8355 14 25.7421 14.9384 23.1109 16.6965C20.4797 18.4546 18.4289 20.9535 17.2179 23.8771C16.0069 26.8007 15.6901 30.0178 16.3074 33.1215C16.9248 36.2251 18.4487 39.0761 20.6863 41.3137C22.9239 43.5514 25.7749 45.0752 28.8786 45.6926C31.9823 46.3099 35.1993 45.9931 38.1229 44.7821C41.0466 43.5711 43.5454 41.5203 45.3035 38.8891C47.0616 36.2579 48 33.1645 48 30C47.995 25.7581 46.3077 21.6913 43.3082 18.6919C40.3087 15.6924 36.2419 14.005 32 14Z" fill="black"/>
<path d="M32 48C28.4399 48 24.9598 46.9443 21.9997 44.9665C19.0397 42.9886 16.7326 40.1774 15.3702 36.8883C14.0078 33.5992 13.6513 29.98 14.3459 26.4884C15.0404 22.9967 16.7547 19.7894 19.2721 17.2721C21.7894 14.7547 24.9967 13.0404 28.4884 12.3459C31.98 11.6513 35.5992 12.0078 38.8883 13.3702C42.1774 14.7326 44.9886 17.0397 46.9665 19.9997C48.9443 22.9598 50 26.4399 50 30C49.9944 34.7722 48.0962 39.3473 44.7218 42.7218C41.3473 46.0962 36.7722 47.9944 32 48ZM32 14C28.8355 14 25.7421 14.9384 23.1109 16.6965C20.4797 18.4546 18.4289 20.9535 17.2179 23.8771C16.0069 26.8007 15.6901 30.0178 16.3074 33.1215C16.9248 36.2251 18.4487 39.0761 20.6863 41.3137C22.9239 43.5514 25.7749 45.0752 28.8786 45.6926C31.9823 46.3099 35.1993 45.9931 38.1229 44.7821C41.0466 43.5711 43.5454 41.5203 45.3035 38.8891C47.0616 36.2579 48 33.1645 48 30C47.995 25.7581 46.3077 21.6913 43.3082 18.6919C40.3087 15.6924 36.2419 14.005 32 14Z" fill="black"/>
<path d="M63 45H53C52.7348 45 52.4804 44.8946 52.2929 44.7071C52.1054 44.5196 52 44.2652 52 44V40C52 39.7348 52.1054 39.4804 52.2929 39.2929C52.4804 39.1054 52.7348 39 53 39H63C63.2652 39 63.5196 39.1054 63.7071 39.2929C63.8946 39.4804 64 39.7348 64 40V44C64 44.2652 63.8946 44.5196 63.7071 44.7071C63.5196 44.8946 63.2652 45 63 45ZM54 43H62V41H54V43Z" fill="black"/>
<path d="M59.222 64H56.778C56.0434 63.9997 55.3344 63.7298 54.7855 63.2415C54.2366 62.7533 53.886 62.0806 53.8 61.351L52.005 44.1C51.991 43.961 52.0064 43.8205 52.05 43.6877C52.0936 43.555 52.1646 43.4328 52.2584 43.3292C52.3521 43.2255 52.4666 43.1427 52.5943 43.086C52.7221 43.0293 52.8603 43 53 43H63C63.1402 42.9993 63.2789 43.0281 63.4073 43.0845C63.5356 43.1409 63.6507 43.2236 63.745 43.3273C63.8393 43.4311 63.9107 43.5534 63.9546 43.6866C63.9986 43.8197 64.014 43.9605 64 44.1L62.2 61.337C62.1162 62.0687 61.7666 62.7441 61.2176 63.235C60.6686 63.726 59.9585 63.9982 59.222 64ZM54.109 45L55.787 61.13C55.8186 61.3706 55.9365 61.5914 56.1188 61.7515C56.3011 61.9116 56.5354 61.9999 56.778 62H59.222C59.4671 62 59.7036 61.9099 59.8867 61.7469C60.0697 61.584 60.1866 61.3594 60.215 61.116L61.891 45H54.109Z" fill="black"/>
<path d="M9 58H3C2.73478 58 2.48043 57.8946 2.29289 57.7071C2.10536 57.5196 2 57.2652 2 57V30H4V56H8V48H10V57C10 57.2652 9.89464 57.5196 9.70711 57.7071C9.51957 57.8946 9.26522 58 9 58Z" fill="black"/>
<path d="M11 64H1C0.734784 64 0.48043 63.8946 0.292893 63.7071C0.105357 63.5196 0 63.2652 0 63V57C0 56.7348 0.105357 56.4804 0.292893 56.2929C0.48043 56.1054 0.734784 56 1 56H11C11.2652 56 11.5196 56.1054 11.7071 56.2929C11.8946 56.4804 12 56.7348 12 57V63C12 63.2652 11.8946 63.5196 11.7071 63.7071C11.5196 63.8946 11.2652 64 11 64ZM2 62H10V58H2V62Z" fill="black"/>
<path d="M32 35C31.0111 35 30.0444 34.7068 29.2222 34.1574C28.3999 33.6079 27.759 32.8271 27.3806 31.9134C27.0022 30.9998 26.9031 29.9945 27.0961 29.0246C27.289 28.0546 27.7652 27.1637 28.4645 26.4645C29.1637 25.7652 30.0546 25.289 31.0246 25.0961C31.9945 24.9031 32.9998 25.0022 33.9134 25.3806C34.8271 25.759 35.6079 26.3999 36.1574 27.2222C36.7068 28.0444 37 29.0111 37 30C36.9984 31.3256 36.4711 32.5964 35.5338 33.5338C34.5964 34.4711 33.3256 34.9984 32 35ZM32 27C31.4067 27 30.8266 27.1759 30.3333 27.5056C29.8399 27.8352 29.4554 28.3038 29.2284 28.852C29.0013 29.4001 28.9419 30.0033 29.0576 30.5853C29.1734 31.1672 29.4591 31.7018 29.8787 32.1213C30.2982 32.5409 30.8328 32.8266 31.4147 32.9424C31.9967 33.0581 32.5999 32.9987 33.1481 32.7716C33.6962 32.5446 34.1648 32.1601 34.4944 31.6667C34.8241 31.1734 35 30.5933 35 30C35 29.2044 34.6839 28.4413 34.1213 27.8787C33.5587 27.3161 32.7957 27 32 27Z" fill="black"/>
<path d="M34 27H30C29.7348 27 29.4804 26.8946 29.2929 26.7071C29.1054 26.5196 29 26.2652 29 26V20C29 19.7348 29.1054 19.4804 29.2929 19.2929C29.4804 19.1054 29.7348 19 30 19H34C34.2652 19 34.5196 19.1054 34.7071 19.2929C34.8946 19.4804 35 19.7348 35 20V26C35 26.2652 34.8946 26.5196 34.7071 26.7071C34.5196 26.8946 34.2652 27 34 27ZM31 25H33V21H31V25Z" fill="black"/>
<path d="M34 41H30C29.7348 41 29.4804 40.8946 29.2929 40.7071C29.1054 40.5196 29 40.2652 29 40V34C29 33.7348 29.1054 33.4804 29.2929 33.2929C29.4804 33.1054 29.7348 33 30 33H34C34.2652 33 34.5196 33.1054 34.7071 33.2929C34.8946 33.4804 35 33.7348 35 34V40C35 40.2652 34.8946 40.5196 34.7071 40.7071C34.5196 40.8946 34.2652 41 34 41ZM31 39H33V35H31V39Z" fill="black"/>
<path d="M28 33H22C21.7348 33 21.4804 32.8946 21.2929 32.7071C21.1054 32.5196 21 32.2652 21 32V28C21 27.7348 21.1054 27.4804 21.2929 27.2929C21.4804 27.1054 21.7348 27 22 27H28C28.2652 27 28.5196 27.1054 28.7071 27.2929C28.8946 27.4804 29 27.7348 29 28V32C29 32.2652 28.8946 32.5196 28.7071 32.7071C28.5196 32.8946 28.2652 33 28 33ZM23 31H27V29H23V31Z" fill="black"/>
<path d="M42 33H36C35.7348 33 35.4804 32.8946 35.2929 32.7071C35.1054 32.5196 35 32.2652 35 32V28C35 27.7348 35.1054 27.4804 35.2929 27.2929C35.4804 27.1054 35.7348 27 36 27H42C42.2652 27 42.5196 27.1054 42.7071 27.2929C42.8946 27.4804 43 27.7348 43 28V32C43 32.2652 42.8946 32.5196 42.7071 32.7071C42.5196 32.8946 42.2652 33 42 33ZM37 31H41V29H37V31Z" fill="black"/>
</g>
<defs>
<clipPath id="clip0_96_368">
<rect width="64" height="64" fill="white"/>
</clipPath>
</defs>
</svg>
