<svg width="64" height="64" viewBox="0 0 64 64" fill="none" xmlns="http://www.w3.org/2000/svg">
<path d="M42 64H22C20.6744 63.9984 19.4036 63.4711 18.4662 62.5338C17.5289 61.5964 17.0016 60.3256 17 59V27C17.0016 25.6744 17.5289 24.4036 18.4662 23.4662C19.4036 22.5289 20.6744 22.0016 22 22H42C43.3256 22.0016 44.5964 22.5289 45.5338 23.4662C46.4711 24.4036 46.9984 25.6744 47 27V59C46.9984 60.3256 46.4711 61.5964 45.5338 62.5338C44.5964 63.4711 43.3256 63.9984 42 64ZM22 24C21.2044 24 20.4413 24.3161 19.8787 24.8787C19.3161 25.4413 19 26.2044 19 27V59C19 59.7957 19.3161 60.5587 19.8787 61.1213C20.4413 61.6839 21.2044 62 22 62H42C42.7956 62 43.5587 61.6839 44.1213 61.1213C44.6839 60.5587 45 59.7957 45 59V27C45 26.2044 44.6839 25.4413 44.1213 24.8787C43.5587 24.3161 42.7956 24 42 24H22Z" fill="black"/>
<path d="M42 24H35C34.7348 24 34.4804 23.8946 34.2929 23.7071C34.1054 23.5196 34 23.2652 34 23V21C34 20.2044 34.3161 19.4413 34.8787 18.8787C35.4413 18.3161 36.2044 18 37 18H40C40.7956 18 41.5587 18.3161 42.1213 18.8787C42.6839 19.4413 43 20.2044 43 21V23C43 23.2652 42.8946 23.5196 42.7071 23.7071C42.5196 23.8946 42.2652 24 42 24ZM36 22H41V21C41 20.7348 40.8946 20.4804 40.7071 20.2929C40.5196 20.1054 40.2652 20 40 20H37C36.7348 20 36.4804 20.1054 36.2929 20.2929C36.1054 20.4804 36 20.7348 36 21V22Z" fill="black"/>
<path d="M30 24H22C21.7348 24 21.4804 23.8946 21.2929 23.7071C21.1054 23.5196 21 23.2652 21 23V19C21 18.2044 21.3161 17.4413 21.8787 16.8787C22.4413 16.3161 23.2044 16 24 16H28C28.7956 16 29.5587 16.3161 30.1213 16.8787C30.6839 17.4413 31 18.2044 31 19V23C31 23.2652 30.8946 23.5196 30.7071 23.7071C30.5196 23.8946 30.2652 24 30 24ZM23 22H29V19C29 18.7348 28.8946 18.4804 28.7071 18.2929C28.5196 18.1054 28.2652 18 28 18H24C23.7348 18 23.4804 18.1054 23.2929 18.2929C23.1054 18.4804 23 18.7348 23 19V22Z" fill="black"/>
<path d="M28 18H24C23.7348 18 23.4804 17.8946 23.2929 17.7071C23.1054 17.5196 23 17.2652 23 17V3C23 2.20435 23.3161 1.44129 23.8787 0.87868C24.4413 0.31607 25.2044 0 26 0C26.7956 0 27.5587 0.31607 28.1213 0.87868C28.6839 1.44129 29 2.20435 29 3V17C29 17.2652 28.8946 17.5196 28.7071 17.7071C28.5196 17.8946 28.2652 18 28 18ZM25 16H27V3C27 2.73478 26.8946 2.48043 26.7071 2.29289C26.5196 2.10536 26.2652 2 26 2C25.7348 2 25.4804 2.10536 25.2929 2.29289C25.1054 2.48043 25 2.73478 25 3V16Z" fill="black"/>
<path d="M37 28H27V30H37V28Z" fill="black"/>
<path d="M37 44H27V46H37V44Z" fill="black"/>
<path d="M39 32H25V34H39V32Z" fill="black"/>
<path d="M39 40H25V42H39V40Z" fill="black"/>
<path d="M41 36H23V38H41V36Z" fill="black"/>
</svg>
