<?xml version="1.0" encoding="UTF-8"?>
<svg id="Layer_1" data-name="Layer 1" xmlns="http://www.w3.org/2000/svg" viewBox="0 0 291.9 325.46">
  <defs>
    <style>
      .cls-1 {
        fill: #71c6c2;
        stroke-width: 0px;
      }

      .cls-2 {
        fill: none;
        stroke: #71c6c2;
        stroke-miterlimit: 10;
        stroke-width: 11px;
      }
    </style>
  </defs>
  <path class="cls-1" d="m252.15,325.46H39.75c-11.72,0-22.78-4.65-30.34-12.75-6.67-7.15-9.98-16.25-9.32-25.64L14.65,77.63c.45-6.47,5.83-11.49,12.32-11.49h237.97c6.49,0,11.87,5.02,12.32,11.49l14.57,209.43c.65,9.39-2.66,18.49-9.33,25.64-7.56,8.11-18.62,12.75-30.34,12.75ZM38.49,90.84l-13.77,197.94c-.22,3.18,1.37,5.61,2.75,7.08,2.91,3.12,7.38,4.9,12.29,4.9h212.4c4.9,0,9.38-1.79,12.29-4.9,1.38-1.47,2.97-3.9,2.75-7.08l-13.77-197.94H38.49Z"/>
  <path class="cls-1" d="m213.19,67.25h-24.7c0-23.46-19.09-42.55-42.55-42.55s-42.55,19.09-42.55,42.55h-24.7C78.7,30.17,108.87,0,145.95,0s67.25,30.17,67.25,67.25Z"/>
  <path class="cls-1" d="m145.95,247.66c-25.27,0-48.93-11.92-61.74-31.1-2.53-3.78-1.51-8.89,2.27-11.42,3.78-2.53,8.89-1.51,11.42,2.27,9.8,14.67,28.21,23.78,48.05,23.78s38.25-9.11,48.05-23.79c2.52-3.78,7.64-4.8,11.42-2.27,3.78,2.52,4.8,7.64,2.27,11.42-12.81,19.19-36.47,31.11-61.74,31.11Z"/>
  <path class="cls-1" d="m105.74,134.83c0,8.1-6.57,14.66-14.67,14.66s-14.66-6.57-14.66-14.66,6.57-14.66,14.66-14.66,14.67,6.57,14.67,14.66Z"/>
  <path class="cls-1" d="m83.52,227.76c-2.11,0-4.21-.8-5.82-2.41-3.21-3.21-3.21-8.43,0-11.64l15.09-15.09c3.21-3.22,8.43-3.21,11.64,0,3.21,3.21,3.21,8.43,0,11.64l-15.09,15.09c-1.61,1.61-3.71,2.41-5.82,2.41Z"/>
  <path class="cls-1" d="m208.39,227.76c-2.11,0-4.21-.8-5.82-2.41l-15.09-15.09c-3.22-3.21-3.22-8.43,0-11.64,3.22-3.22,8.43-3.22,11.64,0l15.09,15.09c3.22,3.21,3.22,8.43,0,11.64-1.61,1.61-3.71,2.41-5.82,2.41Z"/>
  <path class="cls-2" d="m176.41,138.83c15.48-11.81,28.61-10.22,40.21,0"/>
</svg>