<?xml version="1.0" encoding="UTF-8"?>
<svg id="Layer_1" data-name="Layer 1" xmlns="http://www.w3.org/2000/svg" viewBox="0 0 505.93 85.57">
  <defs>
    <style>
      .cls-1, .cls-2 {
        fill: #fff;
      }

      .cls-3, .cls-4, .cls-5 {
        fill: #71c6c2;
      }

      .cls-2 {
        letter-spacing: .02em;
      }

      .cls-6 {
        font-family: Montserrat-Bold, Montserrat;
        font-size: 64.89px;
        font-weight: 700;
      }

      .cls-4 {
        stroke-width: 0px;
      }

      .cls-7 {
        fill: none;
        stroke: #71c6c2;
        stroke-miterlimit: 10;
        stroke-width: 3px;
      }

      .cls-5 {
        letter-spacing: -.03em;
      }
    </style>
  </defs>
  <text class="cls-6" transform="translate(87.12 68.31)"><tspan class="cls-3" x="0" y="0">SIM</tspan><tspan class="cls-5" x="124.66" y="0">AT</tspan><tspan class="cls-3" x="209.93" y="0">A</tspan><tspan class="cls-1" x="259.63" y="0">Ma</tspan><tspan class="cls-2" x="361.64" y="0">r</tspan><tspan class="cls-1" x="390.59" y="0">t</tspan></text>
  <g>
    <path class="cls-4" d="m63.05,81.38H9.94c-2.93,0-5.7-1.16-7.59-3.19-1.67-1.79-2.5-4.06-2.33-6.41L3.66,19.41c.11-1.62,1.46-2.87,3.08-2.87h59.5c1.62,0,2.97,1.26,3.08,2.87l3.64,52.37c.16,2.35-.66,4.62-2.33,6.41-1.89,2.03-4.66,3.19-7.59,3.19ZM9.62,22.71l-3.44,49.49c-.06.8.34,1.4.69,1.77.73.78,1.85,1.23,3.07,1.23h53.11c1.23,0,2.34-.45,3.07-1.23.34-.37.74-.97.69-1.77l-3.44-49.49H9.62Z"/>
    <path class="cls-4" d="m53.31,16.81h-6.18c0-5.87-4.77-10.64-10.64-10.64s-10.64,4.77-10.64,10.64h-6.18C19.68,7.54,27.22,0,36.49,0s16.81,7.54,16.81,16.81Z"/>
    <path class="cls-4" d="m36.49,61.92c-6.32,0-12.23-2.98-15.44-7.78-.63-.95-.38-2.22.57-2.85.94-.63,2.22-.38,2.85.57,2.45,3.67,7.05,5.95,12.01,5.95s9.56-2.28,12.01-5.95c.63-.95,1.91-1.2,2.85-.57.95.63,1.2,1.91.57,2.85-3.2,4.8-9.12,7.78-15.44,7.78Z"/>
    <path class="cls-4" d="m26.44,33.71c0,2.03-1.64,3.67-3.67,3.67s-3.67-1.64-3.67-3.67,1.64-3.67,3.67-3.67,3.67,1.64,3.67,3.67Z"/>
    <path class="cls-4" d="m20.88,56.95c-.53,0-1.05-.2-1.46-.6-.8-.8-.8-2.11,0-2.91l3.77-3.77c.8-.8,2.11-.8,2.91,0,.8.8.8,2.11,0,2.91l-3.77,3.77c-.4.4-.93.6-1.46.6Z"/>
    <path class="cls-4" d="m52.11,56.95c-.53,0-1.05-.2-1.46-.6l-3.77-3.77c-.8-.8-.8-2.11,0-2.91.8-.8,2.11-.8,2.91,0l3.77,3.77c.8.8.8,2.11,0,2.91-.4.4-.93.6-1.46.6Z"/>
    <path class="cls-7" d="m44.11,34.71c3.87-2.95,7.15-2.56,10.05,0"/>
  </g>
</svg>